<svg viewBox="0 0 774 212" width="100%" role="img" aria-label="AI Central revenue by line, monthly, January 2025 to July 2026, in euro net of VAT. Trailing twelve months 140,290 euro.">
<line x1="58" y1="182.0" x2="758" y2="182.0" stroke="#E3DFD7" stroke-width="1"/>
<text x="46" y="187.0" text-anchor="end" font-size="16" fill="#6E6E6E" style="font-variant-numeric:tabular-nums">0</text>
<line x1="58" y1="136.2" x2="758" y2="136.2" stroke="#E3DFD7" stroke-width="1"/>
<text x="46" y="141.2" text-anchor="end" font-size="16" fill="#6E6E6E" style="font-variant-numeric:tabular-nums">€15K</text>
<line x1="58" y1="90.4" x2="758" y2="90.4" stroke="#E3DFD7" stroke-width="1"/>
<text x="46" y="95.4" text-anchor="end" font-size="16" fill="#6E6E6E" style="font-variant-numeric:tabular-nums">€30K</text>
<line x1="58" y1="44.5" x2="758" y2="44.5" stroke="#E3DFD7" stroke-width="1"/>
<text x="46" y="49.5" text-anchor="end" font-size="16" fill="#6E6E6E" style="font-variant-numeric:tabular-nums">€45K</text>
<text x="76.4" y="202" text-anchor="middle" font-size="16" fill="#6E6E6E">Jan 25</text>
<rect x="101.3" y="168.1" width="24" height="11.9" fill="#046BB1"/>
<rect x="138.1" y="179.1" width="24" height="1.2" fill="#046BB1"/>
<rect x="174.9" y="145.0" width="24" height="35.0" fill="#C8102E"/>
<rect x="174.9" y="142.6" width="24" height="1.2" fill="#046BB1"/>
<text x="186.9" y="202" text-anchor="middle" font-size="16" fill="#6E6E6E">Apr 25</text>
<rect x="211.8" y="180.0" width="24" height="1.2" fill="#046BB1"/>
<rect x="248.6" y="173.3" width="24" height="6.7" fill="#C8102E"/>
<rect x="285.5" y="59.2" width="24" height="120.8" fill="#C8102E"/>
<rect x="285.5" y="57.1" width="24" height="1.2" fill="#B8730F"/>
<rect x="285.5" y="36.0" width="24" height="19.1" fill="#046BB1"/>
<text x="297.5" y="202" text-anchor="middle" font-size="16" fill="#6E6E6E">Jul 25</text>
<rect x="322.3" y="161.8" width="24" height="18.2" fill="#C8102E"/>
<rect x="322.3" y="151.4" width="24" height="8.4" fill="#B8730F"/>
<rect x="322.3" y="146.7" width="24" height="2.8" fill="#046BB1"/>
<rect x="322.3" y="145.8" width="24" height="1.2" fill="#0B8A45"/>
<rect x="359.2" y="170.7" width="24" height="9.3" fill="#B8730F"/>
<rect x="359.2" y="163.1" width="24" height="5.6" fill="#046BB1"/>
<rect x="359.2" y="161.2" width="24" height="1.2" fill="#0B8A45"/>
<rect x="396.0" y="171.3" width="24" height="8.7" fill="#B8730F"/>
<rect x="396.0" y="164.6" width="24" height="4.7" fill="#046BB1"/>
<rect x="396.0" y="161.8" width="24" height="1.2" fill="#0B8A45"/>
<text x="408.0" y="202" text-anchor="middle" font-size="16" fill="#6E6E6E">Oct 25</text>
<rect x="432.8" y="176.4" width="24" height="3.6" fill="#C8102E"/>
<rect x="432.8" y="165.9" width="24" height="8.5" fill="#B8730F"/>
<rect x="432.8" y="150.6" width="24" height="13.3" fill="#046BB1"/>
<rect x="432.8" y="149.5" width="24" height="1.2" fill="#0B8A45"/>
<rect x="469.7" y="176.5" width="24" height="3.5" fill="#C8102E"/>
<rect x="469.7" y="166.8" width="24" height="7.7" fill="#B8730F"/>
<rect x="469.7" y="161.9" width="24" height="3.0" fill="#046BB1"/>
<rect x="506.5" y="168.9" width="24" height="11.1" fill="#C8102E"/>
<rect x="506.5" y="159.1" width="24" height="7.9" fill="#B8730F"/>
<rect x="506.5" y="126.4" width="24" height="30.6" fill="#046BB1"/>
<rect x="506.5" y="124.1" width="24" height="1.2" fill="#0B8A45"/>
<text x="518.5" y="202" text-anchor="middle" font-size="16" fill="#6E6E6E">Jan 26</text>
<rect x="543.4" y="164.2" width="24" height="15.8" fill="#C8102E"/>
<rect x="543.4" y="157.6" width="24" height="4.6" fill="#B8730F"/>
<rect x="543.4" y="143.2" width="24" height="12.4" fill="#046BB1"/>
<rect x="580.2" y="160.9" width="24" height="19.1" fill="#C8102E"/>
<rect x="580.2" y="157.0" width="24" height="1.9" fill="#B8730F"/>
<rect x="580.2" y="130.0" width="24" height="25.0" fill="#046BB1"/>
<rect x="580.2" y="129.7" width="24" height="1.2" fill="#0B8A45"/>
<rect x="617.1" y="170.8" width="24" height="9.2" fill="#C8102E"/>
<rect x="617.1" y="164.8" width="24" height="4.0" fill="#B8730F"/>
<rect x="617.1" y="145.2" width="24" height="17.6" fill="#046BB1"/>
<rect x="617.1" y="144.9" width="24" height="1.2" fill="#0B8A45"/>
<text x="629.1" y="202" text-anchor="middle" font-size="16" fill="#6E6E6E">Apr 26</text>
<rect x="653.9" y="142.4" width="24" height="37.6" fill="#C8102E"/>
<rect x="653.9" y="136.7" width="24" height="3.7" fill="#B8730F"/>
<rect x="653.9" y="116.9" width="24" height="17.8" fill="#046BB1"/>
<rect x="653.9" y="116.8" width="24" height="1.2" fill="#0B8A45"/>
<rect x="690.7" y="180.7" width="24" height="1.2" fill="#C8102E"/>
<rect x="690.7" y="173.8" width="24" height="4.9" fill="#B8730F"/>
<rect x="690.7" y="154.4" width="24" height="17.3" fill="#046BB1"/>
<rect x="727.6" y="176.1" width="24" height="3.9" fill="#B8730F"/>
<rect x="727.6" y="162.3" width="24" height="11.9" fill="#046BB1"/>
<text x="739.6" y="202" text-anchor="middle" font-size="16" fill="#6E6E6E">Jul 26</text>
<text x="313.5" y="31.4" font-size="17" font-weight="700" fill="#141414">€51K</text>
<text x="313.5" y="49.4" font-size="15" fill="#6E6E6E">Outskill + Guidde</text>
</svg>